0
SECTION
2
HEADER
9
$INSUNITS
70
4
9
$ACADVER
1
AC1014
9
$HANDSEED
5
FFFF
0
ENDSEC
0
SECTION
2
TABLES
0
TABLE
2
VPORT
5
8
100
AcDbSymbolTable
0
ENDTAB
0
TABLE
2
LTYPE
5
5
100
AcDbSymbolTable
0
LTYPE
5
14
100
AcDbSymbolTableRecord
100
AcDbLinetypeTableRecord
2
BYBLOCK
70
0
0
LTYPE
5
15
100
AcDbSymbolTableRecord
100
AcDbLinetypeTableRecord
2
BYLAYER
70
0
0
LTYPE
5
16
100
AcDbSymbolTableRecord
100
AcDbLinetypeTableRecord
2
DASHED
70
0
3
Dashed __ __ __ __ __ __ __ __ __ __ __ __ __ _
72
65
73
2
40
0.75
49
0.5
74
0
49
-0.25
74
0
0
ENDTAB
0
TABLE
2
LAYER
5
2
100
AcDbSymbolTable
70
2
0
LAYER
5
50
100
AcDbSymbolTableRecord
100
AcDbLayerTableRecord
2
0
70
0
62
7
6
CONTINUOUS
0
ENDTAB
0
TABLE
2
STYLE
5
3
100
AcDbSymbolTable
70
1
0
STYLE
5
11
100
AcDbSymbolTableRecord
100
AcDbTextStyleTableRecord
2
STANDARD
70
0
0
ENDTAB
0
TABLE
2
VIEW
5
6
100
AcDbSymbolTable
70
0
0
ENDTAB
0
TABLE
2
UCS
5
7
100
AcDbSymbolTable
70
0
0
ENDTAB
0
TABLE
2
APPID
5
9
100
AcDbSymbolTable
70
2
0
APPID
5
12
100
AcDbSymbolTableRecord
100
AcDbRegAppTableRecord
2
ACAD
70
0
0
ENDTAB
0
TABLE
2
DIMSTYLE
5
A
100
AcDbSymbolTable
70
1
0
ENDTAB
0
TABLE
2
BLOCK_RECORD
5
1
100
AcDbSymbolTable
70
1
0
BLOCK_RECORD
5
1F
100
AcDbSymbolTableRecord
100
AcDbBlockTableRecord
2
*MODEL_SPACE
0
BLOCK_RECORD
5
1B
100
AcDbSymbolTableRecord
100
AcDbBlockTableRecord
2
*PAPER_SPACE
0
ENDTAB
0
ENDSEC
0
SECTION
2
BLOCKS
0
BLOCK
5
20
100
AcDbEntity
100
AcDbBlockBegin
2
*MODEL_SPACE
0
ENDBLK
5
21
100
AcDbEntity
100
AcDbBlockEnd
0
BLOCK
5
1C
100
AcDbEntity
100
AcDbBlockBegin
2
*PAPER_SPACE
0
ENDBLK
5
1D
100
AcDbEntity
100
AcDbBlockEnd
0
ENDSEC
0
SECTION
2
ENTITIES
0
LWPOLYLINE
5
100
100
AcDbEntity
8
0
100
AcDbPolyline
90
10
70
1
43
0.0
10
52.268931205562552
20
-14.722495848811192
10
41.596059387524342
20
-14.722495848811182
10
41.116059387524317
20
-14.722495848811182
10
40.476059387524323
20
-14.722495848811182
10
40.476059387524323
20
-14.082495848811181
10
41.116059387524317
20
-14.082495848811181
10
41.596059387524342
20
-14.082495848811181
10
52.268931205562552
20
-14.082495848811192
10
52.836059387524337
20
-14.182495848811191
10
52.836059387524337
20
-14.622495848811193
0
LWPOLYLINE
5
101
100
AcDbEntity
8
0
100
AcDbPolyline
90
10
70
1
43
0.0
10
52.268931205562552
20
-12.182495848811193
10
41.596059387524342
20
-12.182495848811181
10
41.116059387524331
20
-12.182495848811181
10
40.47605938752433
20
-12.182495848811181
10
40.47605938752433
20
-11.542495848811182
10
41.116059387524331
20
-11.542495848811182
10
41.596059387524342
20
-11.54249584881118
10
52.268931205562552
20
-11.542495848811193
10
52.836059387524337
20
-11.64249584881119
10
52.836059387524337
20
-12.082495848811192
0
LWPOLYLINE
5
102
100
AcDbEntity
8
0
100
AcDbPolyline
90
10
70
1
43
0.0
10
52.268931205562552
20
-17.262495848811191
10
41.596059387524342
20
-17.262495848811181
10
41.116059387524317
20
-17.262495848811181
10
40.476059387524323
20
-17.262495848811181
10
40.476059387524323
20
-16.622495848811184
10
41.116059387524317
20
-16.622495848811184
10
41.596059387524342
20
-16.622495848811184
10
52.268931205562552
20
-16.622495848811194
10
52.836059387524337
20
-16.722495848811192
10
52.836059387524337
20
-17.162495848811194
0
LINE
5
103
100
AcDbEntity
8
0
100
AcDbLine
10
-49.562181477102456
20
-14.729789196857508
30
0
11
-49.562181477102456
21
-11.259789196857506
31
0
0
LINE
5
104
100
AcDbEntity
8
0
100
AcDbLine
10
-49.56218147710247
20
-16.029789196857514
30
0
11
-47.704886575414477
21
-16.029789196857514
31
0
0
LINE
5
105
100
AcDbEntity
8
0
100
AcDbLine
10
-49.56218147710247
20
-16.029789196857514
30
0
11
-49.562181477102456
21
-14.729789196857508
31
0
0
LINE
5
106
100
AcDbEntity
8
0
100
AcDbLine
10
-45.719476378790475
20
-16.029789196857518
30
0
11
-43.746555586787473
21
-16.029789196857521
31
0
0
LINE
5
107
100
AcDbEntity
8
0
100
AcDbLine
10
-49.562181477102463
20
-7.0797891968575124
30
0
11
-49.562181477102463
21
-8.3797891968575069
31
0
0
LINE
5
108
100
AcDbEntity
8
0
100
AcDbLine
10
-49.562181477102456
20
-11.249789196857506
30
0
11
-49.562181477102463
21
-8.3797891968575069
31
0
0
LINE
5
109
100
AcDbEntity
8
0
100
AcDbLine
10
-49.562181477102456
20
-11.249789196857506
30
0
11
-49.562181477102456
21
-11.259789196857506
31
0
0
LINE
5
110
100
AcDbEntity
8
0
100
AcDbLine
10
-47.362181477102467
20
-16.029789196857514
30
0
11
-47.704886575414477
21
-16.029789196857514
31
0
0
LINE
5
111
100
AcDbEntity
8
0
100
AcDbLine
10
-47.362181477102467
20
-16.029789196857514
30
0
11
-47.062181477102449
21
-16.029789196857507
31
0
0
LINE
5
112
100
AcDbEntity
8
0
100
AcDbLine
10
-47.062181477102449
20
-16.029789196857507
30
0
11
-46.862181477102439
21
-16.029789196857504
31
0
0
LINE
5
113
100
AcDbEntity
8
0
100
AcDbLine
10
-46.862181477102439
20
-16.029789196857504
30
0
11
-46.562181477102449
21
-16.029789196857507
31
0
0
LINE
5
114
100
AcDbEntity
8
0
100
AcDbLine
10
-46.362181477102453
20
-16.029789196857507
30
0
11
-46.562181477102449
21
-16.029789196857507
31
0
0
LINE
5
115
100
AcDbEntity
8
0
100
AcDbLine
10
-46.362181477102453
20
-16.029789196857507
30
0
11
-46.262181477102459
21
-16.029789196857511
31
0
0
LINE
5
116
100
AcDbEntity
8
0
100
AcDbLine
10
-46.262181477102459
20
-16.029789196857511
30
0
11
-46.06218147710247
21
-16.029789196857514
31
0
0
LINE
5
117
100
AcDbEntity
8
0
100
AcDbLine
10
-45.719476378790475
20
-16.029789196857518
30
0
11
-46.06218147710247
21
-16.029789196857514
31
0
0
LINE
5
118
100
AcDbEntity
8
0
100
AcDbLine
10
-43.302181477102472
20
-16.029789196857521
30
0
11
-43.746555586787473
21
-16.029789196857521
31
0
0
LINE
5
119
100
AcDbEntity
8
0
100
AcDbLine
10
-43.302181477102472
20
-16.029789196857521
30
0
11
-42.952181477102449
21
-16.029789196857514
31
0
0
LINE
5
120
100
AcDbEntity
8
0
100
AcDbLine
10
-42.612181477102446
20
-16.029789196857511
30
0
11
-42.952181477102449
21
-16.029789196857514
31
0
0
LINE
5
121
100
AcDbEntity
8
0
100
AcDbLine
10
-42.612181477102446
20
-16.029789196857511
30
0
11
-42.262181477102452
21
-16.029789196857514
31
0
0
LINE
5
122
100
AcDbEntity
8
0
100
AcDbLine
10
-47.704886575414456
20
-7.0797891968575151
30
0
11
-49.562181477102463
21
-7.0797891968575124
31
0
0
LINE
5
123
100
AcDbEntity
8
0
100
AcDbLine
10
-42.612181477102439
20
-7.0797891968575124
30
0
11
-42.26218147710243
21
-7.0797891968575124
31
0
0
LINE
5
124
100
AcDbEntity
8
0
100
AcDbLine
10
-42.612181477102439
20
-7.0797891968575124
30
0
11
-42.952181477102435
21
-7.0797891968575115
31
0
0
LINE
5
125
100
AcDbEntity
8
0
100
AcDbLine
10
-43.302181477102444
20
-7.0797891968575124
30
0
11
-42.952181477102435
21
-7.0797891968575115
31
0
0
LINE
5
126
100
AcDbEntity
8
0
100
AcDbLine
10
-43.302181477102444
20
-7.0797891968575124
30
0
11
-43.746555586787267
21
-7.0797891968575204
31
0
0
LINE
5
127
100
AcDbEntity
8
0
100
AcDbLine
10
-43.746555586787267
20
-7.0797891968575204
30
0
11
-45.719476378790461
21
-7.0797891968575177
31
0
0
LINE
5
128
100
AcDbEntity
8
0
100
AcDbLine
10
-45.719476378790461
20
-7.0797891968575177
30
0
11
-46.062181477102456
21
-7.0797891968575168
31
0
0
LINE
5
129
100
AcDbEntity
8
0
100
AcDbLine
10
-46.262181477102445
20
-7.0797891968575115
30
0
11
-46.062181477102456
21
-7.0797891968575168
31
0
0
LINE
5
130
100
AcDbEntity
8
0
100
AcDbLine
10
-46.362181477102446
20
-7.0797891968575097
30
0
11
-46.262181477102445
21
-7.0797891968575115
31
0
0
LINE
5
131
100
AcDbEntity
8
0
100
AcDbLine
10
-46.362181477102446
20
-7.0797891968575097
30
0
11
-46.562181477102442
21
-7.0797891968575097
31
0
0
LINE
5
132
100
AcDbEntity
8
0
100
AcDbLine
10
-46.862181477102439
20
-7.0797891968575062
30
0
11
-46.562181477102442
21
-7.0797891968575097
31
0
0
LINE
5
133
100
AcDbEntity
8
0
100
AcDbLine
10
-47.062181477102442
20
-7.0797891968575053
30
0
11
-46.862181477102439
21
-7.0797891968575062
31
0
0
LINE
5
134
100
AcDbEntity
8
0
100
AcDbLine
10
-47.362181477102439
20
-7.0797891968575062
30
0
11
-47.062181477102442
21
-7.0797891968575053
31
0
0
LINE
5
135
100
AcDbEntity
8
0
100
AcDbLine
10
-47.362181477102439
20
-7.0797891968575062
30
0
11
-47.704886575414456
21
-7.0797891968575151
31
0
0
LINE
5
136
100
AcDbEntity
8
0
100
AcDbLine
10
-42.26218147710248
20
-7.8597891968575295
30
0
11
-42.962181477102483
21
-7.8597891968575286
31
0
0
LINE
5
137
100
AcDbEntity
8
0
100
AcDbLine
10
-42.262181477102487
20
-15.249789196753532
30
0
11
-42.96218147710249
21
-15.249789196753532
31
0
0
LINE
5
138
100
AcDbEntity
8
0
100
AcDbLine
10
-42.612181477102453
20
-15.729789196857514
30
0
11
-42.262181477102452
21
-15.729789196857514
31
0
0
LINE
5
139
100
AcDbEntity
8
0
100
AcDbLine
10
-42.612181477102453
20
-15.729789196857514
30
0
11
-42.952181477102442
21
-15.72978919685751
31
0
0
LINE
5
140
100
AcDbEntity
8
0
100
AcDbLine
10
-42.962181477102483
20
-15.729789196857514
30
0
11
-42.952181477102442
21
-15.72978919685751
31
0
0
LINE
5
141
100
AcDbEntity
8
0
100
AcDbLine
10
-42.262181477102452
20
-16.029789196857514
30
0
11
-42.262181477102452
21
-15.729789196857514
31
0
0
LINE
5
142
100
AcDbEntity
8
0
100
AcDbLine
10
-42.962181477102483
20
-15.729789196857514
30
0
11
-42.96218147710249
21
-15.249789196753532
31
0
0
LINE
5
143
100
AcDbEntity
8
0
100
AcDbLine
10
-42.26218147710248
20
-14.72978919685753
30
0
11
-42.26218147710248
21
-15.129789196777306
31
0
0
LINE
5
144
100
AcDbEntity
8
0
100
AcDbLine
10
-42.462181477102483
20
-8.9997891968575274
30
0
11
-43.062181477102477
21
-8.9997891968575274
31
0
0
ARC
5
145
100
AcDbEntity
8
0
100
AcDbCircle
10
-43.062181477102477
20
-9.1997891968575285
30
0
40
0.20000000000000129
210
0
220
-0
230
1
100
AcDbArc
50
90
51
180
0
LINE
5
146
100
AcDbEntity
8
0
100
AcDbLine
10
-43.262181477102473
20
-9.1997891968575285
30
0
11
-43.262181477102487
21
-10.249789196857527
31
0
0
ARC
5
147
100
AcDbEntity
8
0
100
AcDbCircle
10
-43.062181477102477
20
-10.249789196857527
30
0
40
0.20000000000000462
210
0
220
0
230
1
100
AcDbArc
50
-180
51
0
0
LINE
5
148
100
AcDbEntity
8
0
100
AcDbLine
10
-42.262181477102487
20
-12.85978919685753
30
0
11
-42.26218147710248
21
-10.249789196857527
31
0
0
ARC
5
149
100
AcDbEntity
8
0
100
AcDbCircle
10
-43.062181477102484
20
-12.85978919685753
30
0
40
0.19999999999999574
210
0
220
0
230
1
100
AcDbArc
50
0
51
180
0
LINE
5
150
100
AcDbEntity
8
0
100
AcDbLine
10
-43.262181477102487
20
-13.909789196857529
30
0
11
-43.262181477102487
21
-12.85978919685753
31
0
0
ARC
5
151
100
AcDbEntity
8
0
100
AcDbCircle
10
-43.062181477102484
20
-13.909789196857529
30
0
40
0.19999999999999574
210
0
220
0
230
1
100
AcDbArc
50
180
51
270
0
LINE
5
152
100
AcDbEntity
8
0
100
AcDbLine
10
-42.462181477102483
20
-14.10978919685753
30
0
11
-43.062181477102484
21
-14.10978919685753
31
0
0
ARC
5
153
100
AcDbEntity
8
0
100
AcDbCircle
10
-42.462181477102483
20
-14.30978919685753
30
0
40
0.19999999999999574
210
0
220
0
230
1
100
AcDbArc
50
0
51
90
0
LINE
5
154
100
AcDbEntity
8
0
100
AcDbLine
10
-42.26218147710248
20
-14.72978919685753
30
0
11
-42.262181477102487
21
-14.30978919685753
31
0
0
LINE
5
155
100
AcDbEntity
8
0
100
AcDbLine
10
-42.26218147710248
20
-8.7997891968575299
30
0
11
-42.26218147710248
21
-8.3797891968575282
31
0
0
ARC
5
156
100
AcDbEntity
8
0
100
AcDbCircle
10
-42.462181477102483
20
-8.7997891968575299
30
0
40
0.19999999999999907
210
0
220
0
230
1
100
AcDbArc
50
-90
51
0
0
LINE
5
157
100
AcDbEntity
8
0
100
AcDbLine
10
-42.26218147710248
20
-8.3797891968575282
30
0
11
-42.262181477102473
21
-7.9797891968574675
31
0
0
LINE
5
158
100
AcDbEntity
8
0
100
AcDbLine
10
-42.962181477102476
20
-7.3797891968575238
30
0
11
-42.962181477102483
21
-7.8597891968575286
31
0
0
LINE
5
159
100
AcDbEntity
8
0
100
AcDbLine
10
-42.962181477102476
20
-7.3797891968575238
30
0
11
-42.952181477102442
21
-7.3797891968575113
31
0
0
LINE
5
160
100
AcDbEntity
8
0
100
AcDbLine
10
-42.612181477102439
20
-7.3797891968575104
30
0
11
-42.952181477102442
21
-7.3797891968575113
31
0
0
LINE
5
161
100
AcDbEntity
8
0
100
AcDbLine
10
-42.612181477102439
20
-7.3797891968575104
30
0
11
-42.26218147710243
21
-7.3797891968575122
31
0
0
LINE
5
162
100
AcDbEntity
8
0
100
AcDbLine
10
-42.26218147710243
20
-7.0797891968575124
30
0
11
-42.26218147710243
21
-7.3797891968575122
31
0
0
LINE
5
163
100
AcDbEntity
8
0
100
AcDbLine
10
-42.26218147710248
20
-7.8597891968575295
30
0
11
-42.262181477102473
21
-7.9797891968574675
31
0
0
LINE
5
164
100
AcDbEntity
8
0
100
AcDbLine
10
-42.26218147710248
20
-15.129789196777306
30
0
11
-42.262181477102487
21
-15.249789196753532
31
0
0
LINE
5
165
100
AcDbEntity
8
0
100
AcDbLine
10
-42.26218147710248
20
-10.249789196857527
30
0
11
-42.26218147710248
21
-9.9997891968574333
31
0
0
LINE
5
166
100
AcDbEntity
8
0
100
AcDbLine
10
-42.26218147710248
20
-9.7399815757223784
30
0
11
-42.26218147710248
21
-9.9997891968574333
31
0
0
LINE
5
167
100
AcDbEntity
8
0
100
AcDbLine
10
-42.26218147710248
20
-9.7399815757223784
30
0
11
-42.26218147710248
21
-9.5899815757221827
31
0
0
LINE
5
168
100
AcDbEntity
8
0
100
AcDbLine
10
-42.262181477102487
20
-13.369596817992528
30
0
11
-42.262181477102487
21
-13.519596817992877
31
0
0
LINE
5
169
100
AcDbEntity
8
0
100
AcDbLine
10
-42.262181477102487
20
-13.369596817992528
30
0
11
-42.262181477102487
21
-13.109789196857628
31
0
0
LINE
5
170
100
AcDbEntity
8
0
100
AcDbLine
10
-42.262181477102487
20
-12.85978919685753
30
0
11
-42.262181477102487
21
-13.109789196857628
31
0
0
LINE
5
171
100
AcDbEntity
8
0
100
AcDbLine
10
-42.862181477102482
20
-10.249789196857527
30
0
11
-42.862181477102475
21
-9.9997891968574333
31
0
0
LINE
5
172
100
AcDbEntity
8
0
100
AcDbLine
10
-42.862181477102496
20
-12.85978919685753
30
0
11
-42.862181477102482
21
-13.109789196857625
31
0
0
LINE
5
173
100
AcDbEntity
8
0
100
AcDbLine
10
-42.862181477102482
20
-13.109789196857625
30
0
11
-42.862181477102482
21
-13.369596817992576
31
0
0
LINE
5
174
100
AcDbEntity
8
0
100
AcDbLine
10
-42.862181477102482
20
-13.369596817992576
30
0
11
-42.862181477102482
21
-13.519596817992877
31
0
0
ELLIPSE
5
175
100
AcDbEntity
8
0
100
AcDbEllipse
10
-42.762181477102487
20
-13.519596817992529
30
0
11
-0.10000000000000001
21
1.2732312527999917e-16
31
0.0
40
0.8660254037843268
41
4.0074610296871928e-12
42
1.5707963267949534
0
LINE
5
176
100
AcDbEntity
8
0
100
AcDbLine
10
-42.762181477102487
20
-13.606199358370963
30
0
11
-42.362181477102482
21
-13.60619935837153
31
0
0
ELLIPSE
5
177
100
AcDbEntity
8
0
100
AcDbEllipse
10
-42.362181477102482
20
-13.519596817992529
30
0
11
0.10000000000000001
21
-1.2732312527999917e-16
31
0.0
40
0.8660254037843268
41
4.7123889803847465
42
6.2831853071755788
0
LINE
5
178
100
AcDbEntity
8
0
100
AcDbLine
10
-42.862181477102475
20
-9.9997891968574333
30
0
11
-42.862181477102482
21
-9.7399815757224761
31
0
0
ELLIPSE
5
179
100
AcDbEntity
8
0
100
AcDbEllipse
10
-42.362181477102482
20
-9.5899815757225291
30
0
11
0.10000000000000002
21
-1.2732312527999912e-16
31
0.0
40
0.86602540378433113
41
3.993250174971763e-12
42
1.5707963267949534
0
LINE
5
180
100
AcDbEntity
8
0
100
AcDbLine
10
-42.762181477102487
20
-9.5033790353435279
30
0
11
-42.362181477102482
21
-9.5033790353440963
31
0
0
ELLIPSE
5
181
100
AcDbEntity
8
0
100
AcDbEllipse
10
-42.762181477102473
20
-9.5899815757225291
30
0
11
0.10000000000000002
21
-1.2732312527999912e-16
31
0.0
40
0.86602540378433113
41
1.5707963267950671
42
3.1415926535897931
0
LINE
5
182
100
AcDbEntity
8
0
100
AcDbLine
10
-42.862181477102482
20
-9.7399815757224761
30
0
11
-42.862181477102475
21
-9.5899815757225291
31
0
0
LWPOLYLINE
5
183
100
AcDbEntity
8
0
100
AcDbPolyline
90
4
70
1
43
0.0
10
23.649999999999984
20
-3.4770677301427528
42
17.442669325358224
10
22.850000000000044
20
-3.4770677301427515
10
22.850000000000016
20
-4.300000000000006
10
23.650000000000016
20
-4.300000000000006
0
LWPOLYLINE
5
184
100
AcDbEntity
8
0
100
AcDbPolyline
90
4
70
1
43
0.0
10
-22.850000000000041
20
-3.477067730142744
42
17.442669325358224
10
-23.649999999999981
20
-3.4770677301427435
10
-23.650000000000013
20
-4.299999999999998
10
-22.850000000000009
20
-4.299999999999998
0
CIRCLE
5
185
100
AcDbEntity
8
0
100
AcDbCircle
10
31.250000000000018
20
-29.699999999999996
30
0
40
1.4500000000000002
210
0
220
0
230
1
0
CIRCLE
5
186
100
AcDbEntity
8
0
100
AcDbCircle
10
-31.250000000000018
20
-29.699999999999996
30
0
40
1.4500000000000002
210
0
220
0
230
1
0
CIRCLE
5
187
100
AcDbEntity
8
0
100
AcDbCircle
10
31.250000000000018
20
29.699999999999996
30
0
40
1.4500000000000002
210
0
220
0
230
1
0
CIRCLE
5
188
100
AcDbEntity
8
0
100
AcDbCircle
10
-31.250000000000018
20
29.699999999999996
30
0
40
1.4500000000000002
210
0
220
0
230
1
0
LWPOLYLINE
5
189
100
AcDbEntity
8
0
100
AcDbPolyline
90
16
70
1
43
0.0
10
-48.141421356237302
20
22.31299423149111
10
-37.312994231491132
20
33.141421356237316
42
-0.19891236737964993
10
-37.171572875253823
20
33.200000000000003
10
37.171572875253823
20
33.199999999999996
42
-0.19891236737969573
10
37.312994231491132
20
33.141421356237309
10
48.141421356237302
20
22.312994231491125
42
-0.19891236737962106
10
48.200000000000003
20
22.171572875253808
10
48.199999999999996
20
-22.171572875253808
42
-0.19891236737964405
10
48.141421356237302
20
-22.312994231491118
10
37.312994231491118
20
-33.141421356237309
42
-0.19891236737962603
10
37.171572875253815
20
-33.199999999999996
10
-37.171572875253815
20
-33.199999999999996
42
-0.19891236737963597
10
-37.312994231491132
20
-33.141421356237302
10
-48.141421356237302
20
-22.312994231491121
42
-0.1989123673796325
10
-48.200000000000003
20
-22.171572875253808
10
-48.199999999999996
20
22.171572875253808
42
-0.19891236737966619
0
LWPOLYLINE
5
190
100
AcDbEntity
8
0
100
AcDbPolyline
90
4
70
1
43
0.0
10
-47.181980515339454
20
-23.696699141100904
10
-38.696699141100879
20
-32.181980515339475
10
-37.31555822156551
20
-27.613616501779894
42
0.59874247817508641
10
-42.613616501780108
20
-22.315558221565553
0
CIRCLE
5
191
100
AcDbEntity
8
0
100
AcDbCircle
10
-41.38370490960979
20
-26.383704909609762
30
0
40
1.4999999999999991
210
0
220
-0
230
1
0
LWPOLYLINE
5
192
100
AcDbEntity
8
0
100
AcDbPolyline
90
6
70
1
43
0.0
10
-27.90000000000002
20
-29.699999999999996
10
-27.900000000000034
20
-33.5
10
-17.761553183211891
20
-33.5
10
-18.867605499095692
20
-27.227265609382162
42
0.46485520927191593
10
-24.752005973350109
20
-23.811148360705445
10
-32.380723597915249
20
-26.546594833340052
42
-0.51905081624240945
0
CIRCLE
5
193
100
AcDbEntity
8
0
100
AcDbCircle
10
-23.250000000000021
20
-27.999999999999993
30
0
40
3.9499999999999993
210
-0
220
0
230
1
0
LWPOLYLINE
5
194
100
AcDbEntity
8
0
100
AcDbPolyline
90
4
70
1
43
0.0
10
-15.000000000000002
20
-33.5
10
-3.0000000000000004
20
-33.5
10
-5.2537070629387976
20
-29.293064717105857
42
0.59874247817509052
10
-12.746292937061201
20
-29.293064717105857
0
CIRCLE
5
195
100
AcDbEntity
8
0
100
AcDbCircle
10
-9.0000000000000036
20
-31.299999999999997
30
0
40
1.5000000000000002
210
0
220
-0
230
1
0
LWPOLYLINE
5
196
100
AcDbEntity
8
0
100
AcDbPolyline
90
4
70
1
43
0.0
10
3.0000000000000018
20
-33.5
10
15.000000000000004
20
-33.5
10
12.746292937061202
20
-29.293064717105853
42
0.59874247817509096
10
5.2537070629388012
20
-29.29306471710586
0
CIRCLE
5
197
100
AcDbEntity
8
0
100
AcDbCircle
10
9.0000000000000018
20
-31.299999999999994
30
0
40
1.5000000000000002
210
0
220
-0
230
1
0
LWPOLYLINE
5
198
100
AcDbEntity
8
0
100
AcDbPolyline
90
6
70
1
43
0.0
10
27.900000000000034
20
-33.5
10
27.90000000000002
20
-29.699999999999996
42
-0.51905081624240945
10
32.380723597915249
20
-26.546594833340052
10
24.752005973350109
20
-23.811148360705449
42
0.46485520927191543
10
18.867605499095696
20
-27.227265609382162
10
17.761553183211891
20
-33.5
0
CIRCLE
5
199
100
AcDbEntity
8
0
100
AcDbCircle
10
23.250000000000021
20
-28
30
0
40
3.9499999999999993
210
0
220
-0
230
1
0
CIRCLE
5
200
100
AcDbEntity
8
0
100
AcDbCircle
10
31.250000000000018
20
-29.699999999999996
30
0
40
1.25
210
0
220
-0
230
1
0
LWPOLYLINE
5
201
100
AcDbEntity
8
0
100
AcDbPolyline
90
4
70
1
43
0.0
10
35.321721676509434
20
-33.5
10
34.549105972590915
20
-29.118278604815782
42
0.91633117401742314
10
27.90000000000002
20
-29.699999999999996
10
27.900000000000034
20
-33.5
0
LWPOLYLINE
5
202
100
AcDbEntity
8
0
100
AcDbPolyline
90
4
70
1
43
0.0
10
38.696699141100879
20
-32.181980515339475
10
47.181980515339454
20
-23.696699141100904
10
42.613616501780115
20
-22.315558221565531
42
0.59874247817508652
10
37.315558221565524
20
-27.613616501779891
0
CIRCLE
5
203
100
AcDbEntity
8
0
100
AcDbCircle
10
41.38370490960979
20
-26.383704909609762
30
0
40
1.4999999999999991
210
0
220
-0
230
1
0
LWPOLYLINE
5
204
100
AcDbEntity
8
0
100
AcDbPolyline
90
4
70
1
43
0.0
10
47.181980515339454
20
23.696699141100904
10
38.696699141100879
20
32.181980515339475
10
37.31555822156551
20
27.613616501779894
42
0.59874247817508641
10
42.613616501780108
20
22.315558221565553
0
CIRCLE
5
205
100
AcDbEntity
8
0
100
AcDbCircle
10
41.38370490960979
20
26.383704909609762
30
0
40
1.4999999999999991
210
-0
220
0
230
1
0
LWPOLYLINE
5
206
100
AcDbEntity
8
0
100
AcDbPolyline
90
6
70
1
43
0.0
10
27.90000000000002
20
29.699999999999996
10
27.900000000000034
20
33.5
10
17.761553183211891
20
33.5
10
18.867605499095692
20
27.227265609382162
42
0.46485520927191593
10
24.752005973350109
20
23.811148360705445
10
32.380723597915249
20
26.546594833340052
42
-0.51905081624240945
0
CIRCLE
5
207
100
AcDbEntity
8
0
100
AcDbCircle
10
23.250000000000021
20
27.999999999999993
30
0
40
3.9499999999999993
210
0
220
-0
230
1
0
CIRCLE
5
208
100
AcDbEntity
8
0
100
AcDbCircle
10
31.250000000000018
20
29.699999999999996
30
0
40
1.25
210
0
220
-0
230
1
0
LWPOLYLINE
5
209
100
AcDbEntity
8
0
100
AcDbPolyline
90
4
70
1
43
0.0
10
34.549105972590915
20
29.118278604815782
10
35.321721676509434
20
33.5
10
27.900000000000034
20
33.5
10
27.90000000000002
20
29.699999999999996
42
0.91633117401742314
0
LWPOLYLINE
5
210
100
AcDbEntity
8
0
100
AcDbPolyline
90
4
70
1
43
0.0
10
15.000000000000002
20
33.5
10
3.0000000000000004
20
33.5
10
5.2537070629387976
20
29.293064717105857
42
0.59874247817509052
10
12.746292937061201
20
29.293064717105857
0
CIRCLE
5
211
100
AcDbEntity
8
0
100
AcDbCircle
10
9.0000000000000036
20
31.299999999999997
30
0
40
1.5000000000000002
210
-0
220
0
230
1
0
LWPOLYLINE
5
212
100
AcDbEntity
8
0
100
AcDbPolyline
90
4
70
1
43
0.0
10
-3.0000000000000018
20
33.5
10
-15.000000000000004
20
33.5
10
-12.746292937061202
20
29.293064717105853
42
0.59874247817509096
10
-5.2537070629388012
20
29.29306471710586
0
CIRCLE
5
213
100
AcDbEntity
8
0
100
AcDbCircle
10
-9.0000000000000018
20
31.299999999999994
30
0
40
1.5000000000000002
210
0
220
-0
230
1
0
LWPOLYLINE
5
214
100
AcDbEntity
8
0
100
AcDbPolyline
90
6
70
1
43
0.0
10
-27.900000000000034
20
33.5
10
-27.90000000000002
20
29.699999999999996
42
-0.51905081624240945
10
-32.380723597915249
20
26.546594833340052
10
-24.752005973350109
20
23.811148360705449
42
0.46485520927191543
10
-18.867605499095696
20
27.227265609382162
10
-17.761553183211891
20
33.5
0
CIRCLE
5
215
100
AcDbEntity
8
0
100
AcDbCircle
10
-23.250000000000021
20
28
30
0
40
3.9499999999999993
210
-0
220
0
230
1
0
CIRCLE
5
216
100
AcDbEntity
8
0
100
AcDbCircle
10
-31.250000000000018
20
29.699999999999996
30
0
40
1.25
210
0
220
-0
230
1
0
LWPOLYLINE
5
217
100
AcDbEntity
8
0
100
AcDbPolyline
90
4
70
1
43
0.0
10
-35.321721676509434
20
33.5
10
-34.549105972590915
20
29.118278604815782
42
0.91633117401742314
10
-27.90000000000002
20
29.699999999999996
10
-27.900000000000034
20
33.5
0
LWPOLYLINE
5
218
100
AcDbEntity
8
0
100
AcDbPolyline
90
4
70
1
43
0.0
10
-38.696699141100879
20
32.181980515339475
10
-47.181980515339454
20
23.696699141100904
10
-42.613616501780115
20
22.315558221565531
42
0.59874247817508652
10
-37.315558221565524
20
27.613616501779891
0
CIRCLE
5
219
100
AcDbEntity
8
0
100
AcDbCircle
10
-41.38370490960979
20
26.383704909609762
30
0
40
1.4999999999999991
210
0
220
-0
230
1
0
LWPOLYLINE
5
220
100
AcDbEntity
8
0
100
AcDbPolyline
90
6
70
1
43
0.0
10
-48.5
20
-16.379789196857523
10
-48.5
20
-14.629789196857526
10
-48.5
20
-8.4797891968575243
10
-48.5
20
-6.7297891968575225
10
-48.5
20
-8.4797891968575243
10
-48.5
20
-14.629789196857526
0
LWPOLYLINE
5
221
100
AcDbEntity
8
0
100
AcDbPolyline
90
2
70
1
43
0.0
10
-48.5
20
22.171572875253808
10
-48.5
20
-22.171572875253808
0
LWPOLYLINE
5
222
100
AcDbEntity
8
0
100
AcDbPolyline
90
6
70
1
43
0.0
10
48.5
20
-9.8424958488111827
10
48.5
20
-10.342495848811183
10
48.5
20
-18.462495848811184
10
48.5
20
-18.962495848811184
10
48.5
20
-18.462495848811184
10
48.5
20
-10.342495848811183
0
LWPOLYLINE
5
223
100
AcDbEntity
8
0
100
AcDbPolyline
90
2
70
1
43
0.0
10
48.5
20
-22.171572875253808
10
48.5
20
22.171572875253808
0
ENDSEC
0
SECTION
2
OBJECTS
0
DICTIONARY
5
C
100
AcDbDictionary
3
ACAD_GROUP
350
D
3
ACAD_MLINESTYLE
350
17
0
DICTIONARY
5
D
100
AcDbDictionary
0
DICTIONARY
5
1A
330
C
100
AcDbDictionary
0
DICTIONARY
5
17
100
AcDbDictionary
0
ENDSEC
0
EOF
